<?xml version="1.0" encoding="UTF-8"?>
<svg version="1.1" xmlns="http://www.w3.org/2000/svg" width="512" height="512">
<path d="M0 0 C12.11205824 9.22823485 21.43960961 22.00422217 24.60742188 37.07324219 C25.42211192 43.14693888 25.33248687 49.28255683 25.31567383 55.40063477 C25.31252059 57.79685288 25.33600805 60.19182498 25.36132812 62.58789062 C25.43465673 79.97882163 21.2876125 94.39082181 10 108 C11.13695312 108.20753906 12.27390625 108.41507812 13.4453125 108.62890625 C28.79083148 111.61220068 40.86877836 116.53835248 52 128 C52.56074219 128.54011719 53.12148438 129.08023438 53.69921875 129.63671875 C65.55157246 141.98680909 68.46524931 159.36812281 68.40405273 175.78564453 C68.41091599 177.09635925 68.41777924 178.40707397 68.42485046 179.75750732 C68.44260175 183.31115456 68.44164879 186.86455251 68.43590808 190.41823053 C68.43279174 193.40025752 68.43893513 196.38223829 68.44494683 199.36425865 C68.45892935 206.40352372 68.45748165 213.44266725 68.44604492 220.48193359 C68.4345523 227.71494373 68.4486727 234.94758356 68.4754414 242.18054497 C68.49766586 248.42214264 68.50422117 254.66362462 68.49836498 260.90525901 C68.49501239 264.61948722 68.4972971 268.33347782 68.51461601 272.04767227 C68.533093 276.18973187 68.51882905 280.33107902 68.50170898 284.47314453 C68.51621094 286.29073776 68.51621094 286.29073776 68.53100586 288.14505005 C68.43546709 299.22656866 65.90795173 308.03676303 58.15625 316.12109375 C52.0299463 321.45941274 45.61501423 323.14093815 37.625 323.1875 C36.52414062 323.20167969 35.42328125 323.21585937 34.2890625 323.23046875 C30.87649381 322.99134577 28.21055644 322.13236208 25 321 C25.00368717 321.78353505 25.00737434 322.5670701 25.01117325 323.37434864 C25.09965269 342.47198765 25.16577197 361.56958555 25.20724869 380.66738605 C25.22784156 389.90308829 25.25589928 399.13865339 25.30175781 408.37426758 C25.34172614 416.42749651 25.3674566 424.48062609 25.37635398 432.53395146 C25.38155187 436.79502524 25.39369985 441.05581487 25.42292023 445.31679726 C25.45024768 449.33463415 25.45841037 453.3520722 25.45243073 457.36999321 C25.45352327 458.8376597 25.46137358 460.30534074 25.4768219 461.77292633 C25.60630248 474.71809535 23.63757397 484.33251816 14.515625 493.83203125 C5.45483662 501.64062993 -4.45019412 502.68131473 -15.93261719 502.18359375 C-23.24948677 501.53381979 -28.79710131 497.92906192 -34 493 C-37.46927562 494.6652523 -40.60357528 496.65581517 -43.8046875 498.78125 C-52.1374179 503.4072498 -62.77900332 503.21484732 -71.98046875 501.41796875 C-80.6907138 498.38530791 -87.8734043 491.83697641 -92.0625 483.6875 C-94.39398912 478.53499202 -95.12487115 474.34176722 -95.12025452 468.67254639 C-95.12162918 467.37126801 -95.12300385 466.06998962 -95.12442017 464.72927856 C-95.12088122 463.28924537 -95.11724642 461.84921242 -95.11352539 460.40917969 C-95.11324329 458.89136761 -95.1134017 457.3735554 -95.1139679 455.85574341 C-95.11425497 451.736265 -95.10837267 447.61681567 -95.10139394 443.49734402 C-95.09514553 439.1918547 -95.09455542 434.88636473 -95.09336853 430.58087158 C-95.09025961 422.42824269 -95.08205212 414.27562719 -95.07201904 406.1230042 C-95.06084429 396.84134864 -95.05534402 387.55969244 -95.05032361 378.27803183 C-95.03986916 359.18534695 -95.02227819 340.09267455 -95 321 C-96.13066895 321.48460693 -96.13066895 321.48460693 -97.28417969 321.97900391 C-103.92065405 324.473946 -113.36716798 324.10920569 -119.9375 321.4375 C-128.88404413 316.60198557 -134.56701961 309.99489122 -137.54768658 300.20027542 C-138.08695062 297.57702934 -138.13546912 295.1427911 -138.14717102 292.46356201 C-138.15432632 291.33686096 -138.16148163 290.21015991 -138.16885376 289.04931641 C-138.17154266 287.81713379 -138.17423157 286.58495117 -138.17700195 285.31542969 C-138.18685875 283.36337616 -138.18685875 283.36337616 -138.19691467 281.37188721 C-138.21792773 277.05522894 -138.22832251 272.73857049 -138.23828125 268.421875 C-138.24233147 266.93016797 -138.24644847 265.43846112 -138.25063133 263.94675446 C-138.26968619 256.92868413 -138.28391002 249.91062427 -138.2922433 242.89253306 C-138.30198187 234.82617626 -138.32821095 226.76009635 -138.36874419 218.69383693 C-138.39907746 212.43962795 -138.4137288 206.18549748 -138.41702431 199.93121648 C-138.41935758 196.20604097 -138.42808791 192.48116106 -138.45348549 188.75606537 C-138.60454722 165.37726878 -138.24373211 145.09793238 -121.203125 127.2109375 C-120.11257812 126.11652344 -120.11257812 126.11652344 -119 125 C-118.18789062 124.15308594 -118.18789062 124.15308594 -117.359375 123.2890625 C-107.09493724 113.49119009 -93.47148638 110.45908085 -80 108 C-80.44730469 107.39414063 -80.89460938 106.78828125 -81.35546875 106.1640625 C-91.92303743 91.5181784 -95.53488725 78.19216838 -95.39111328 60.31811523 C-95.37499938 57.93740776 -95.39105811 55.55839131 -95.41015625 53.17773438 C-95.43631026 35.55922141 -90.60661193 20.05013612 -78.33447266 7.06469727 C-57.46969927 -13.79652889 -24.30031403 -16.20020935 0 0 Z M-67.75 22.75 C-76.11726667 32.73234372 -77.22360707 43.46319782 -77.29516602 55.96264648 C-77.30661941 57.35012057 -77.32696485 58.73755293 -77.35668945 60.12475586 C-77.66841295 74.71306734 -74.84096095 85.91993995 -65 97 C-55.69128045 105.67731415 -44.63525805 109.50390142 -32.01953125 109.25 C-21.20697572 108.35478195 -10.34512003 103.02208962 -3 95 C5.31901117 84.05756622 7.51781224 74.1200762 7.39111328 60.55029297 C7.37502282 58.50290323 7.39104065 56.45748652 7.41015625 54.41015625 C7.43337992 40.70850086 4.19728554 29.71750991 -5 19.3125 C-14.2271732 10.56331099 -26.2693185 7.50766626 -38.55859375 7.7265625 C-50.83253015 8.2546424 -59.49711355 14.08890626 -67.75 22.75 Z M-105 137 C-105.62519531 137.50144531 -106.25039062 138.00289062 -106.89453125 138.51953125 C-114.73914675 145.5437948 -119.48627596 156.35010638 -120.18811989 166.80130386 C-120.26664358 170.14842992 -120.28164742 173.49032909 -120.2746582 176.83837891 C-120.27976913 178.10762711 -120.28488007 179.37687531 -120.29014587 180.68458557 C-120.30346326 184.14517781 -120.30412306 187.60566037 -120.30158257 191.06627321 C-120.30050863 193.96152534 -120.30540665 196.85675565 -120.310188 199.75200307 C-120.32125649 206.58240687 -120.32173458 213.41275565 -120.31567383 220.24316406 C-120.3096258 227.28013469 -120.32197205 234.31690578 -120.3432439 241.35384238 C-120.36087037 247.4084127 -120.3668599 253.46291955 -120.36360615 259.51751459 C-120.36179595 263.12822366 -120.36440371 266.73879013 -120.37832069 270.34947586 C-120.39325234 274.37325232 -120.38391989 278.39662275 -120.37231445 282.42041016 C-120.37995819 283.61121689 -120.38760193 284.80202362 -120.39547729 286.02891541 C-120.36620998 293.94192709 -120.36620998 293.94192709 -117 301 C-113.77010591 303.78945399 -111.7336682 304.89519026 -107.5 305.5 C-103.2663318 304.89519026 -101.22989409 303.78945399 -98 301 C-94.5098069 295.68019856 -94.58092259 290.97618093 -94.63110352 284.83544922 C-94.62733704 283.82662689 -94.62357056 282.81780457 -94.61968994 281.77841187 C-94.61326885 279.59478559 -94.61357679 277.41113136 -94.61987495 275.22750473 C-94.62899031 271.7728278 -94.61875698 268.31869294 -94.60325623 264.86404419 C-94.56316029 255.04462508 -94.56195924 245.22524908 -94.56420898 235.40576172 C-94.56426 229.39465188 -94.54513955 223.38383592 -94.51487541 217.37280655 C-94.50402488 213.96692407 -94.5161938 210.56159608 -94.52870178 207.1557312 C-94.51980079 205.07240239 -94.5097276 202.98907815 -94.49829102 200.90576172 C-94.50803452 199.95709229 -94.51777802 199.00842285 -94.52781677 198.03100586 C-94.45739527 191.61998312 -94.45739527 191.61998312 -92.09385681 188.41629028 C-89.84642274 186.89611993 -88.6910418 186.43224406 -86 186.4375 C-85.34 186.41558594 -84.68 186.39367187 -84 186.37109375 C-80.67830904 187.41560985 -79.7950444 189.02411813 -78 192 C-77.40079262 195.72701894 -77.46669764 199.42284967 -77.50120544 203.19078064 C-77.49582089 204.33421403 -77.49043634 205.47764742 -77.48488861 206.65573031 C-77.47159013 210.49588246 -77.48678004 214.33539859 -77.50170898 218.17553711 C-77.50012255 220.92513703 -77.49246773 223.67471177 -77.48498535 226.42430115 C-77.47189414 232.34961913 -77.47305939 238.27479605 -77.48357964 244.20011711 C-77.49851855 252.77364986 -77.4886051 261.34701708 -77.47206045 269.9205404 C-77.4455979 283.83920261 -77.43474057 297.75782768 -77.43579102 311.67651367 C-77.43584934 312.50948444 -77.43590766 313.3424552 -77.43596775 314.20066751 C-77.4362336 317.57574097 -77.43655089 320.95081443 -77.43693101 324.32588788 C-77.43789716 333.61496417 -77.4365696 342.90403933 -77.43383789 352.19311523 C-77.433598 353.02476796 -77.43335811 353.85642068 -77.43311094 354.71327501 C-77.42870479 368.57873269 -77.4124732 382.4441559 -77.3886171 396.30959326 C-77.37454286 404.86176836 -77.37166966 413.41381248 -77.38323999 421.9659921 C-77.39056127 427.82538527 -77.38750523 433.68471244 -77.37628155 439.54409926 C-77.3702067 442.92515533 -77.37077277 446.3058745 -77.38115883 449.68694305 C-77.39174617 453.35220512 -77.38405375 457.01698933 -77.37181091 460.68223572 C-77.383175 462.28510253 -77.383175 462.28510253 -77.39476866 463.92035049 C-77.35066845 470.13002219 -76.90268028 474.89051298 -72.46484375 479.64453125 C-66.49119795 484.21261334 -62.47673903 484.75084649 -55 484 C-50.07993933 481.67415314 -47.68768565 478.67856392 -45 474 C-43.94172728 470.82518183 -43.87011529 468.57274748 -43.86196899 465.23731995 C-43.85651566 464.03575256 -43.85106232 462.83418518 -43.84544373 461.59620667 C-43.84432397 460.26278692 -43.84327345 458.92936711 -43.84228516 457.59594727 C-43.83761649 456.19314413 -43.83247283 454.79034251 -43.82688904 453.38754272 C-43.81561104 450.36571457 -43.80717551 447.34389626 -43.80076981 444.32205391 C-43.79009141 439.54457548 -43.76984782 434.7671679 -43.74765015 429.98973083 C-43.6857178 416.40423826 -43.63168684 402.8187501 -43.59863281 389.2331543 C-43.58029908 381.7307193 -43.55138103 374.22840319 -43.5106281 366.72605556 C-43.48954105 362.75542053 -43.47409841 358.7849354 -43.47182083 354.81424141 C-43.46967649 351.08034411 -43.45382945 347.34675919 -43.42743111 343.612957 C-43.41679288 341.58843983 -43.42099599 339.56386176 -43.4256134 337.5393219 C-43.40897392 335.73274109 -43.40897392 335.73274109 -43.39199829 333.8896637 C-43.38868814 332.84271615 -43.385378 331.7957686 -43.38196754 330.71709538 C-42.94200251 327.58743956 -42.22025842 326.22559324 -40 324 C-36.02655839 322.89626622 -33.91000228 322.58456417 -30.125 324.3125 C-28 326 -28 326 -27 328 C-26.90297706 329.86983246 -26.87095665 331.74316244 -26.86869812 333.61550903 C-26.86468994 334.80992111 -26.86068176 336.00433319 -26.85655212 337.23493958 C-26.85708084 338.55233627 -26.85760956 339.86973297 -26.8581543 341.22705078 C-26.85512337 342.62321584 -26.8516021 344.01937991 -26.84762573 345.4155426 C-26.83972925 348.42701452 -26.83458891 351.43847455 -26.83133507 354.44995499 C-26.8254275 359.21584958 -26.80888805 363.98166939 -26.78999329 368.74752808 C-26.78365552 370.37917514 -26.7773299 372.01082225 -26.77101612 373.64246941 C-26.76785031 374.45974439 -26.7646845 375.27701938 -26.76142275 376.11906028 C-26.71935739 387.21607884 -26.68638905 398.31306331 -26.67407227 409.41015625 C-26.66568213 416.89250311 -26.64315346 424.37466553 -26.6047166 431.85692012 C-26.58498239 435.81544553 -26.57254239 439.77369538 -26.57755089 443.7322731 C-26.58221015 447.46049712 -26.56832301 451.18819989 -26.54053879 454.91631889 C-26.530375 456.92815242 -26.53985857 458.94005556 -26.55003357 460.95188904 C-26.47643426 468.1026445 -25.93114487 472.95435841 -22 479 C-16.90660612 483.72958003 -13.55996964 484.35234282 -6.76171875 484.28125 C-1.63544581 483.75919674 0.98532946 481.12436465 4.3125 477.4375 C6.71106862 473.97290088 7.12511641 471.37899979 7.12749195 467.2719593 C7.13200342 465.80459869 7.13200342 465.80459869 7.13660604 464.30759442 C7.13485567 463.23027802 7.13310529 462.15296162 7.13130188 461.04299927 C7.13341759 459.90056916 7.13553331 458.75813905 7.13771313 457.58108985 C7.14267872 454.40506989 7.14320911 451.22908373 7.14197242 448.05306125 C7.14175739 444.62966888 7.14733217 441.20628591 7.15237427 437.78289795 C7.1604905 431.84885795 7.16543219 425.91482226 7.16866493 419.98077774 C7.17415887 410.60336749 7.19105336 401.22599367 7.21000671 391.84860229 C7.21636356 388.64132124 7.22267196 385.4340401 7.22898388 382.22675896 C7.23056764 381.42520692 7.2321514 380.62365488 7.23378316 379.79781339 C7.25172323 370.67168941 7.26794826 361.54556285 7.28295898 352.41943359 C7.28502279 351.16788747 7.28502279 351.16788747 7.28712829 349.8910576 C7.30906358 336.36665456 7.31981578 322.84226089 7.32732973 309.31784321 C7.33539688 295.4377397 7.35867377 281.55771655 7.3952834 267.67765892 C7.41732521 259.113326 7.42696795 250.54915827 7.42078307 241.98479842 C7.41761179 236.1169459 7.42891656 230.24923458 7.45167748 224.38142575 C7.46436217 220.99443908 7.4704951 217.60776691 7.45926094 214.22076797 C7.45042979 210.55051245 7.46597476 206.88115067 7.48774719 203.21096802 C7.47508339 201.60168558 7.47508339 201.60168558 7.46216375 199.95989239 C7.54145508 192.76015847 7.54145508 192.76015847 9.9070158 188.83862114 C12.16736214 186.85297759 13.03543399 186.33906714 16 186.4375 C16.66 186.43621094 17.32 186.43492187 18 186.43359375 C21.07530901 187.30453087 22.08667078 188.40654988 24 191 C24.60408671 194.29629333 24.53262666 197.56269402 24.49829102 200.90576172 C24.50656921 202.41373825 24.50656921 202.41373825 24.51501465 203.95217896 C24.52433959 206.13473431 24.52443578 208.31734407 24.51642036 210.49990463 C24.50381368 213.95505757 24.5150597 217.4094089 24.53245544 220.86453247 C24.55919283 226.9548614 24.56474986 233.0449947 24.56335449 239.13537598 C24.56112859 248.87688377 24.57523136 258.61814903 24.61894035 268.35956192 C24.62878266 271.76196251 24.62005817 275.16398292 24.61024475 278.56637573 C24.61638962 280.65606943 24.62330158 282.74576105 24.63110352 284.83544922 C24.62338425 285.78007019 24.61566498 286.72469116 24.60771179 287.69793701 C24.64763516 292.88244103 25.06892483 296.53241398 28 301 C31.22989409 303.78945399 33.2663318 304.89519026 37.5 305.5 C41.7336682 304.89519026 43.77010591 303.78945399 47 301 C50.97726921 295.27429116 50.4227857 289.27179294 50.38818359 282.57568359 C50.39344055 281.32611877 50.39869751 280.07655396 50.40411377 278.78912354 C50.41503773 275.37123426 50.41249966 271.95389154 50.40297651 268.53603315 C50.39535376 264.94618491 50.40243369 261.35635922 50.40713501 257.76651001 C50.4125892 251.73248128 50.40541426 245.69856276 50.39111328 239.66455078 C50.37483175 232.71520644 50.38004369 225.76612681 50.3965925 218.81678903 C50.41027026 212.83094456 50.41209517 206.84517917 50.40427649 200.8593241 C50.3996286 197.29311844 50.39889381 193.72703651 50.40888596 190.16083908 C50.41927624 186.17396527 50.40481646 182.18753631 50.38818359 178.20068359 C50.39729263 176.45614395 50.39729263 176.45614395 50.40658569 174.67636108 C50.29914955 160.68510578 46.89532569 149.2005862 37.375 138.75 C27.96488699 129.84464401 16.08744029 126.69601106 3.4855957 126.70947266 C2.56896652 126.70275543 1.65233734 126.69603821 0.70793152 126.68911743 C-2.30284141 126.67022196 -5.31339032 126.66621723 -8.32421875 126.6640625 C-10.43398629 126.65762774 -12.54375296 126.65089888 -14.65351868 126.64389038 C-19.0707099 126.631938 -23.48782305 126.62820736 -27.9050293 126.62939453 C-33.53564577 126.62959737 -39.16575558 126.60232151 -44.79625225 126.56785011 C-49.15373485 126.54549308 -53.51109731 126.54155972 -57.86863136 126.54261398 C-59.94284622 126.54027026 -62.01706501 126.53151686 -64.09122276 126.51594925 C-79.31998339 126.41236638 -92.64013172 126.97126601 -105 137 Z " fill="#000000" transform="translate(291,10)"/>
</svg>
