<?xml version="1.0" encoding="iso-8859-1"?>
<!-- Uploaded to: SVG Repo, www.svgrepo.com, Generator: SVG Repo Mixer Tools -->
<svg height="800px" width="800px" version="1.1" id="Capa_1" xmlns="http://www.w3.org/2000/svg" xmlns:xlink="http://www.w3.org/1999/xlink" 
     viewBox="0 0 205.716 205.716" xml:space="preserve">
  <g transform="scale(-1,1) translate(-205.716,0)">
    <g>
      <path style="fill:#ffffff;" d="M77.478,44.306c0.841,0,1.696-0.047,2.541-0.143c5.876-0.669,11.148-3.593,14.827-8.228
        c3.69-4.627,5.347-10.418,4.674-16.298C98.236,8.446,88.787,0,77.539,0c-0.845,0-1.707,0.047-2.545,0.15
        C62.855,1.535,54.112,12.53,55.493,24.673C56.778,35.867,66.223,44.306,77.478,44.306z M77.528,3.74
        c9.348,0,17.2,7.018,18.266,16.323c0.562,4.889-0.816,9.699-3.879,13.542c-3.049,3.854-7.43,6.281-12.311,6.839
        c-0.709,0.079-1.414,0.118-2.115,0.118c-9.352,0-17.207-7.011-18.266-16.32c-0.555-4.878,0.82-9.684,3.89-13.535
        c3.056-3.854,7.433-6.284,12.304-6.85C76.129,3.779,76.838,3.74,77.528,3.74z"/>
      <path style="fill:#ffffff;" d="M193.565,184.261c-7.845-13.324-14.713-26.881-21.359-39.983
        c-6.65-13.131-13.528-26.695-21.473-40.198c-0.351-0.601-0.748-1.174-1.256-1.807c-0.304-0.762-0.644-1.51-1.013-2.233
        c-7.308-14.201-14.77-27.962-22.175-40.888c14.709-3.837,27.421,1.449,37.431,15.482c2.963,4.137,6.682,6.413,10.472,6.413
        c3.514,0,6.617-1.954,8.303-5.225c2.283-4.434,1.439-10.175-2.262-15.35c-12.343-17.297-32.85-28.04-53.504-28.04
        c-10.314,0-20.002,2.648-28.795,7.863c-0.676,0.401-2.527,1.435-4.499,2.534c-1.886,1.052-3.754,2.097-4.445,2.516
        c-8.704,5.164-18.13,7.895-27.26,7.895c-12.755,0-23.724-5.526-30.885-15.557c-3.092-4.323-7.079-6.71-11.213-6.71
        c-3.701,0-7.04,2.033-8.725,5.293c-2.14,4.173-1.342,9.394,2.187,14.33c14.258,19.97,32.764,30.52,53.522,30.52
        c5.766,0,11.66-0.841,17.533-2.512c7.523,12.973,14.859,26.38,22.414,40.964c-10.618,5.59-20.804,12.619-30.295,20.883
        c-2.849,2.494-4.477,5.554-4.699,8.865c-0.225,3.346,0.984,6.753,3.407,9.62c1.167,2.394,3.031,4.381,5.544,5.887
        c7.587,4.563,17.257,9.33,26.666,13.979c6.213,3.067,12.648,6.249,18.377,9.323c2.641,1.406,5.3,2.115,7.927,2.115
        c5.794,0,10.672-3.554,12.143-8.861c1.177-4.245-0.004-10.236-6.854-14.351c-4.295-2.58-10.221-6.338-14.981-9.369l-0.229-0.147
        c-4.227-2.681-8.582-5.451-12.272-7.716c7.423-4.749,15.153-8.539,22.98-11.263c0.945-0.333,1.84-0.737,2.673-1.22l36.189,61.46
        c2.634,4.481,6.438,6.947,10.697,6.947c4.162,0,8.128-2.423,10.364-6.32C196.783,194.868,196.561,189.353,193.565,184.261z
         M183.831,201.983c-2.885,0-5.54-1.811-7.476-5.1l-38.279-65.021l-1.682,1.321c-0.977,0.777-2.115,1.385-3.368,1.822
        c-8.994,3.139-17.841,7.612-26.29,13.313l-2.434,1.646l2.512,1.507c4.166,2.505,9.656,5.987,14.97,9.359l0.24,0.157
        c5.254,3.339,10.683,6.785,14.824,9.258c4.284,2.58,6.216,6.367,5.171,10.146c-1.016,3.658-4.449,6.127-8.539,6.127
        c-2.001,0-4.069-0.573-6.156-1.693c-5.791-3.092-12.243-6.281-18.606-9.423c-9.269-4.585-18.839-9.316-26.28-13.779
        c-1.94-1.163-3.35-2.681-4.234-4.574l-0.251-0.372c-1.875-2.154-2.824-4.678-2.663-7.104c0.161-2.326,1.313-4.445,3.429-6.284
        c9.76-8.511,20.26-15.654,31.204-21.244l1.671-0.859l-0.855-1.675c-8.178-15.829-16.062-30.241-24.1-44.052l-0.748-1.285
        l-1.421,0.437c-5.991,1.84-12.007,2.77-17.862,2.77c-19.487,0-36.948-10.01-50.476-28.96c-2.684-3.754-3.371-7.562-1.9-10.432
        c1.052-2.047,3.067-3.267,5.397-3.267c2.902,0,5.805,1.825,8.163,5.136C35.684,50.909,47.734,56.99,61.738,56.99
        c9.795-0.004,19.881-2.913,29.153-8.425c0.684-0.404,2.534-1.435,4.477-2.527c1.893-1.056,3.783-2.115,4.477-2.523
        c8.203-4.874,17.246-7.347,26.881-7.347c19.462,0,38.795,10.146,50.458,26.473c2.874,4.023,3.607,8.303,1.983,11.467
        c-1.034,1.997-2.895,3.189-4.978,3.189c-2.545,0-5.189-1.718-7.415-4.842c-8.654-12.125-19.229-18.266-31.419-18.266
        c-4.005,0-8.196,0.684-12.451,2.044l-2.219,0.712l1.17,2.004c7.813,13.557,15.647,27.962,23.28,42.807
        c0.347,0.68,0.673,1.381,1.016,2.24l0.243,0.415c0.469,0.569,0.82,1.063,1.117,1.564c7.841,13.335,14.709,26.881,21.373,40.029
        c6.671,13.159,13.564,26.763,21.455,40.162c2.294,3.89,2.512,8.038,0.605,11.384C189.375,200.287,186.647,201.983,183.831,201.983
        z"/>
    </g>
  </g>
</svg>
