<?xml version="1.0" encoding="UTF-8"?>
<svg version="1.1" xmlns="http://www.w3.org/2000/svg" width="64" height="64">
<path d="M0 0 C2.25 1.5625 2.25 1.5625 4 3 C4.99 2.67 5.98 2.34 7 2 C8.44677978 1.9419138 9.8962078 1.93849009 11.34375 1.97265625 C12.59478516 1.99102539 12.59478516 1.99102539 13.87109375 2.00976562 C15.62378059 2.04492353 17.37639345 2.08398661 19.12890625 2.12695312 C19.96292969 2.13791016 20.79695313 2.14886719 21.65625 2.16015625 C22.41744141 2.17699463 23.17863281 2.19383301 23.96289062 2.21118164 C26.3137118 2.12737589 26.3137118 2.12737589 29 0 C33.74644445 -0.35822222 37.67214566 -0.06088302 42 2 C42.8125 4 42.8125 4 43 6 C43.495 6.99 43.495 6.99 44 8 C44.1273092 11.37369377 44.11519183 14.43683992 43.4375 17.75 C42.77859647 20.15493756 42.77859647 20.15493756 44 23 C44.69577815 31.75686499 44.98620577 39.19591497 40.19140625 46.88671875 C37.47732781 51.70087101 38.1843015 55.69795977 39 61 C38 62 38 62 35.75 62.3125 C32.17678871 61.90645326 30.6100435 60.38632549 28 58 C27.33871094 58.32484375 26.67742188 58.6496875 25.99609375 58.984375 C22.31027771 60.23380417 18.90534918 60.29281726 15.0625 60.25 C14.02706055 60.26160156 14.02706055 60.26160156 12.97070312 60.2734375 C8.60579982 60.2568881 5.05484502 59.59909381 1 58 C0.443125 58.66 -0.11375 59.32 -0.6875 60 C-3 62 -3 62 -5.75 62.25 C-6.4925 62.1675 -7.235 62.085 -8 62 C-8.87336076 58.79767721 -8.99509955 56.97835633 -8.25 53.6875 C-7.94038148 49.1206269 -9.18567559 47.41106761 -11.7734375 43.796875 C-14.48372009 39.82639732 -14.1498968 35.73090877 -14.125 31.125 C-14.12886719 30.41730469 -14.13273438 29.70960937 -14.13671875 28.98046875 C-14.13106535 25.94459098 -14.03330554 23.14843579 -13.3671875 20.1796875 C-12.69582392 17.71395134 -12.69582392 17.71395134 -15 15 C-15.30564826 10.26245197 -15.53539014 6.18339373 -13 2 C-11 1.25 -11 1.25 -9 1 C-5.94306678 -0.52846661 -3.37015453 -0.23242445 0 0 Z M-10.83984375 7.33203125 C-12.42826678 9.61572362 -12.47676838 11.29831253 -12 14 C-8.99618527 14.32448773 -8.99618527 14.32448773 -7.24609375 12.50390625 C-6.64925781 11.86324219 -6.05242188 11.22257813 -5.4375 10.5625 C-2.17142857 7.08571429 -2.17142857 7.08571429 0 6 C-0.33 5.01 -0.66 4.02 -1 3 C-5.76137383 2.15975756 -7.76167816 4.01768927 -10.83984375 7.33203125 Z M30 3 C29.66162847 6.03690159 29.66162847 6.03690159 31.64453125 7.7890625 C32.35996094 8.39492187 33.07539062 9.00078125 33.8125 9.625 C34.52019531 10.23601563 35.22789063 10.84703125 35.95703125 11.4765625 C38.01956302 13.18074829 38.01956302 13.18074829 41 14 C41.47676838 11.29831253 41.42826678 9.61572362 39.83984375 7.33203125 C37.3103887 4.60850037 35.8909357 3.116209 32.125 2.625 C31.42375 2.74875 30.7225 2.8725 30 3 Z M-5.4375 13.375 C-11.31537632 21.18441642 -12.13190201 28.30876278 -11 38 C-8.43036362 46.53119278 -3.32741808 51.35056036 4.0625 55.875 C10.25265278 58.21381338 18.23522288 58.14350707 24.5078125 56.23828125 C26.47693205 55.29115721 28.21384698 54.25466359 30 53 C30.886875 52.4225 31.77375 51.845 32.6875 51.25 C38.5181377 45.5769471 41.14416225 39.52569959 41.375 31.4375 C41.30246672 23.62808332 39.59157931 18.01813267 34.35546875 12.16015625 C27.35782365 5.69957646 20.89545834 4.36048561 11.51171875 4.58984375 C4.57419969 5.40012128 -0.71492854 8.25984314 -5.4375 13.375 Z M-4 54 C-4.33 55.32 -4.66 56.64 -5 58 C-4.01 57.01 -3.02 56.02 -2 55 C-2.66 54.67 -3.32 54.34 -4 54 Z M33 54 C33 54.99 33 55.98 33 57 C33.66 57.33 34.32 57.66 35 58 C34.67 56.68 34.34 55.36 34 54 C33.67 54 33.34 54 33 54 Z " fill="#000000" transform="translate(16,2)"/>
<path d="M0 0 C1.06863281 0.01804687 2.13726562 0.03609375 3.23828125 0.0546875 C4.04652344 0.07789063 4.85476562 0.10109375 5.6875 0.125 C5.3575 1.115 5.0275 2.105 4.6875 3.125 C4.0584375 3.13917969 3.429375 3.15335938 2.78125 3.16796875 C-4.67919227 3.58368617 -9.71690572 5.34568922 -14.91796875 10.8125 C-18.51421355 15.64778713 -19.07365829 20.28359137 -18.7890625 26.22265625 C-17.77600766 32.39232629 -14.6938271 36.41970996 -9.75 40.125 C-4.50698237 43.03888882 0.86467706 43.08110282 6.6875 42.125 C12.13537739 40.16843119 16.02932604 36.53035033 18.83984375 31.5 C20.7396973 26.17690803 20.81479037 20.23325693 18.8828125 14.90625 C17.52802414 12.42772245 15.93194728 10.36944728 13.9375 8.375 C13.525 7.9625 13.1125 7.55 12.6875 7.125 C12.6875 6.135 12.6875 5.145 12.6875 4.125 C15.33253642 4.503682 16.48035633 4.90863917 18.35546875 6.8671875 C18.85691406 7.57101563 19.35835937 8.27484375 19.875 9 C20.38417969 9.69867188 20.89335938 10.39734375 21.41796875 11.1171875 C24.98049585 16.75146113 24.18502853 23.72109705 23.6875 30.125 C22.07067658 36.32931637 17.98603884 40.66607859 12.6875 44.125 C6.22894822 47.33230803 -1.88712212 47.28883954 -8.79296875 45.47265625 C-14.51351559 42.89453746 -18.68119192 38.40996285 -21.453125 32.828125 C-23.52236775 26.31941599 -23.58496784 17.91546513 -20.75 11.625 C-15.98788977 3.75569727 -9.14364816 -0.2009593 0 0 Z " fill="#000000" transform="translate(30.3125,9.875)"/>
<path d="M0 0 C0.66 0 1.32 0 2 0 C1.99097656 0.556875 1.98195313 1.11375 1.97265625 1.6875 C2.21705953 7.9782278 4.07609495 10.9611006 8.50390625 15.37109375 C10 17 10 17 10 19 C11.32 19.66 12.64 20.32 14 21 C13.67 21.99 13.34 22.98 13 24 C12.01 23.34 11.02 22.68 10 22 C10 21.34 10 20.68 10 20 C9.41863281 19.88140625 8.83726563 19.7628125 8.23828125 19.640625 C4.18804614 18.48139541 1.25222418 16.60616241 -1 13 C-1.30638231 8.55217411 -0.77325263 4.37959893 0 0 Z " fill="#000000" transform="translate(30,22)"/>
<path d="M0 0 C2.475 0.495 2.475 0.495 5 1 C5 1.99 5 2.98 5 4 C3.35 3.67 1.7 3.34 0 3 C0 2.01 0 1.02 0 0 Z " fill="#000000" transform="translate(37,11)"/>
<path d="M0 0 C0 0.99 0 1.98 0 3 C-1.32 3.33 -2.64 3.66 -4 4 C-4.33 3.01 -4.66 2.02 -5 1 C-3 0 -3 0 0 0 Z " fill="#000000" transform="translate(47,25)"/>
<path d="M0 0 C0.99 0.33 1.98 0.66 3 1 C2.01 2.485 2.01 2.485 1 4 C0.01 4 -0.98 4 -2 4 C-1.34 2.68 -0.68 1.36 0 0 Z " fill="#000000" transform="translate(41,20)"/>
<path d="M0 0 C1.98 0.495 1.98 0.495 4 1 C4 1.66 4 2.32 4 3 C2.35 2.67 0.7 2.34 -1 2 C-0.67 1.34 -0.34 0.68 0 0 Z " fill="#000000" transform="translate(43,37)"/>
<path d="M0 0 C0.66 0 1.32 0 2 0 C2 1.32 2 2.64 2 4 C1.01 4 0.02 4 -1 4 C-0.67 2.68 -0.34 1.36 0 0 Z " fill="#000000" transform="translate(36,17)"/>
<path d="M0 0 C0.66 0 1.32 0 2 0 C2 1.32 2 2.64 2 4 C1.34 4 0.68 4 0 4 C0 2.68 0 1.36 0 0 Z " fill="#000000" transform="translate(30,46)"/>
<path d="M0 0 C1.32 0 2.64 0 4 0 C4 0.66 4 1.32 4 2 C2.68 2 1.36 2 0 2 C0 1.34 0 0.68 0 0 Z " fill="#000000" transform="translate(44,32)"/>
<path d="M0 0 C1.32 0 2.64 0 4 0 C4 0.66 4 1.32 4 2 C2.68 2 1.36 2 0 2 C0 1.34 0 0.68 0 0 Z " fill="#000000" transform="translate(14,32)"/>
<path d="M0 0 C0.66 0 1.32 0 2 0 C2 1.32 2 2.64 2 4 C1.34 4 0.68 4 0 4 C0 2.68 0 1.36 0 0 Z " fill="#000000" transform="translate(30,16)"/>
</svg>
